<svg width="36" height="25" viewBox="0 0 36 25" fill="none" xmlns="http://www.w3.org/2000/svg">
<g clip-path="url(#clip0_2_611)">
<path d="M35.2502 3.90409C35.0446 3.14755 34.6425 2.45779 34.0839 1.90374C33.5254 1.34968 32.8301 0.950732 32.0675 0.746748C29.2581 -0.0117182 18 -0.0117188 18 -0.0117188C18 -0.0117188 6.73889 -0.0117185 3.93546 0.734989C3.17114 0.939449 2.47459 1.33999 1.91587 1.89631C1.35715 2.45263 0.955977 3.14511 0.752714 3.90409C-1.97832e-06 6.68807 0 12.5 0 12.5C0 12.5 -1.97832e-06 18.312 0.752714 21.096C0.957794 21.8528 1.35977 22.5428 1.91837 23.097C2.47697 23.6511 3.17257 24.0499 3.93546 24.2533C6.74185 25 18 25 18 25C18 25 29.2611 25 32.0675 24.2533C32.8301 24.0493 33.5254 23.6504 34.0839 23.0963C34.6425 22.5423 35.0446 21.8525 35.2502 21.096C36 18.312 36 12.5 36 12.5C36 12.5 35.9911 6.68807 35.2502 3.90409Z" fill="#FF0000"/>
<path d="M14.3984 17.8571L23.7541 12.5008L14.3984 7.14453V17.8571Z" fill="white"/>
</g>
<defs>
<clipPath id="clip0_2_611">
<rect width="36" height="25" fill="white"/>
</clipPath>
</defs>
</svg>
