<svg width="25" height="25" viewBox="0 0 25 25" fill="none" xmlns="http://www.w3.org/2000/svg">
<g clip-path="url(#clip0_2_604)">
<path d="M12.5 25C19.4036 25 25 19.4036 25 12.5C25 5.59644 19.4036 0 12.5 0C5.59644 0 0 5.59644 0 12.5C0 19.4036 5.59644 25 12.5 25Z" fill="url(#paint0_linear_2_604)"/>
<path fill-rule="evenodd" clip-rule="evenodd" d="M5.65782 12.3665C9.30182 10.7789 11.7317 9.73219 12.9475 9.22649C16.4189 7.78262 17.1402 7.53181 17.6104 7.52353C17.7138 7.5217 17.945 7.54733 18.0948 7.66886C18.2212 7.77147 18.256 7.91008 18.2727 8.00737C18.2893 8.10466 18.3101 8.32628 18.2936 8.49945C18.1055 10.476 17.2915 15.2726 16.8774 17.4863C16.7022 18.423 16.3571 18.7371 16.0231 18.7679C15.2972 18.8347 14.746 18.2881 14.0429 17.8273C12.9428 17.1061 12.3213 16.6572 11.2534 15.9534C10.0192 15.1402 10.8193 14.6932 11.5226 13.9627C11.7067 13.7715 14.905 10.8623 14.9669 10.5984C14.9746 10.5654 14.9818 10.4424 14.9087 10.3774C14.8356 10.3125 14.7278 10.3347 14.6499 10.3524C14.5396 10.3774 12.7821 11.5391 9.37735 13.8373C8.87848 14.1799 8.42662 14.3468 8.02177 14.3381C7.57546 14.3284 6.71693 14.0857 6.0787 13.8782C5.29589 13.6238 4.67372 13.4892 4.7279 13.0571C4.75612 12.832 5.06609 12.6018 5.65782 12.3665Z" fill="white"/>
</g>
<defs>
<linearGradient id="paint0_linear_2_604" x1="12.5" y1="0" x2="12.5" y2="24.8146" gradientUnits="userSpaceOnUse">
<stop stop-color="#2AABEE"/>
<stop offset="1" stop-color="#229ED9"/>
</linearGradient>
<clipPath id="clip0_2_604">
<rect width="25" height="25" fill="white"/>
</clipPath>
</defs>
</svg>
