<svg width="25" height="25" viewBox="0 0 25 25" fill="none" xmlns="http://www.w3.org/2000/svg">
<path d="M0 12C0 6.34312 0 3.51472 1.75736 1.75736C3.51472 0 6.34312 0 12 0H13C18.6569 0 21.4853 0 23.2427 1.75736C25 3.51472 25 6.34312 25 12V13C25 18.6569 25 21.4853 23.2427 23.2427C21.4853 25 18.6569 25 13 25H12C6.34312 25 3.51472 25 1.75736 23.2427C0 21.4853 0 18.6569 0 13V12Z" fill="#0077FF"/>
<path d="M13.302 18.0117C7.60412 18.0117 4.35417 14.1055 4.21875 7.60547H7.07292C7.16667 12.3763 9.27078 14.3971 10.9374 14.8138V7.60547H13.6251V11.7201C15.2709 11.543 16.9998 9.66797 17.5832 7.60547H20.2707C19.8228 10.1471 17.9478 12.0221 16.6145 12.793C17.9478 13.418 20.0833 15.0534 20.8958 18.0117H17.9374C17.302 16.0326 15.7188 14.5013 13.6251 14.293V18.0117H13.302Z" fill="white"/>
</svg>
