<svg width="74" height="74" viewBox="0 0 74 74" fill="none" xmlns="http://www.w3.org/2000/svg">
<g clip-path="url(#clip0_6_127)">
<path d="M56.8427 47.5662C58.2162 48.5417 55.9105 48.6756 56.8427 49.6052C43.7753 43.0904 29.7757 51.4682 16.7083 47.7422C25.4211 39.942 20.6177 26.1167 35.3771 22.6126C44.1935 20.5201 49.4535 30.6423 51.6941 39.307C52.5189 42.5013 54.3029 45.378 56.8082 47.5318C56.8197 47.5432 56.8351 47.5547 56.8466 47.5624L56.8427 47.5662Z" fill="#F4DFC4"/>
<path d="M40.2495 27.0042C39.3555 27.0042 38.4501 27.1457 37.6137 27.4058C37.2032 27.5359 36.7965 27.5359 36.386 27.4058C35.5497 27.1419 34.6442 27.0042 33.7503 27.0042C27.6425 27.0042 29.2001 29.9306 27.2588 34.2496C25.8623 38.5686 20.963 44.28 14.5751 49.8537C10.6848 53.7327 8.16029 57.5391 8.58999 60.764C7.90324 65.8251 22.1331 74.7729 28.0837 71.5097C29.9521 70.6872 31.6517 69.3369 33.7656 68.128C35.5803 67.0913 38.4194 67.0913 40.2341 68.128C42.3519 69.3369 44.0515 70.6834 45.9161 71.5097C51.8628 74.7767 66.0965 65.8251 65.4098 60.764C65.8356 57.5391 63.315 53.7327 59.4247 49.8537C53.0368 44.2838 48.1375 38.5724 46.741 34.2496C44.7958 29.9306 46.3573 27.0042 40.2495 27.0042Z" fill="#F4DFC4"/>
<path d="M7.34705 45.6609C11.4047 45.6609 14.6941 41.3225 14.6941 35.9709C14.6941 30.6193 11.4047 26.281 7.34705 26.281C3.28939 26.281 0 30.6193 0 35.9709C0 41.3225 3.28939 45.6609 7.34705 45.6609Z" fill="#F4DFC4"/>
<path d="M24.0553 22.3369C28.113 22.3369 31.4024 17.9986 31.4024 12.647C31.4024 7.29536 28.113 2.95703 24.0553 2.95703C19.9976 2.95703 16.7083 7.29536 16.7083 12.647C16.7083 17.9986 19.9976 22.3369 24.0553 22.3369Z" fill="#F4DFC4"/>
<path d="M47.9879 19.3799C52.0456 19.3799 55.335 15.0415 55.335 9.68993C55.335 4.33833 52.0456 0 47.9879 0C43.9303 0 40.6409 4.33833 40.6409 9.68993C40.6409 15.0415 43.9303 19.3799 47.9879 19.3799Z" fill="#F4DFC4"/>
<path d="M66.653 43.2546C70.7106 43.2546 74 38.9163 74 33.5647C74 28.2131 70.7106 23.8748 66.653 23.8748C62.5953 23.8748 59.3059 28.2131 59.3059 33.5647C59.3059 38.9163 62.5953 43.2546 66.653 43.2546Z" fill="#F4DFC4"/>
</g>
<defs>
<clipPath id="clip0_6_127">
<rect width="74" height="74" fill="white"/>
</clipPath>
</defs>
</svg>
