<svg width="28" height="28" viewBox="0 0 28 28" fill="none" xmlns="http://www.w3.org/2000/svg">
	<g clip-path="url(#clip0_2_616)" id="pawsicon">
		<path
			d="M21.508 17.9979C22.0277 18.367 21.1553 18.4177 21.508 18.7694C16.5636 16.3044 11.2664 19.4744 6.32202 18.0645C9.61879 15.1131 7.80128 9.88193 13.3859 8.55604C16.7219 7.76427 18.7121 11.5943 19.5599 14.8728C19.872 16.0815 20.547 17.17 21.495 17.9849C21.4993 17.9892 21.5051 17.9936 21.5095 17.9965L21.508 17.9979Z"
			fill="var(--svg-fill)" />
		<path
			d="M15.2295 10.2177C14.8913 10.2177 14.5487 10.2713 14.2322 10.3697C14.0769 10.4189 13.923 10.4189 13.7677 10.3697C13.4512 10.2698 13.1086 10.2177 12.7704 10.2177C10.4593 10.2177 11.0487 11.3251 10.3141 12.9593C9.78574 14.5935 7.93194 16.7545 5.5149 18.8635C4.04289 20.3313 3.08769 21.7715 3.25027 22.9917C2.99042 24.9067 8.3747 28.2924 10.6263 27.0577C11.3332 26.7465 11.9763 26.2355 12.7762 25.7781C13.4628 25.3859 14.5371 25.3859 15.2237 25.7781C16.0251 26.2355 16.6682 26.745 17.3737 27.0577C19.6238 28.2938 25.0095 24.9067 24.7497 22.9917C24.9108 21.7715 23.957 20.3313 22.485 18.8635C20.068 16.756 18.2142 14.5949 17.6858 12.9593C16.9498 11.3251 17.5406 10.2177 15.2295 10.2177Z"
			fill="var(--svg-fill)" />
		<path
			d="M2.77997 17.2771C4.3153 17.2771 5.55993 15.6356 5.55993 13.6106C5.55993 11.5857 4.3153 9.94417 2.77997 9.94417C1.24463 9.94417 0 11.5857 0 13.6106C0 15.6356 1.24463 17.2771 2.77997 17.2771Z"
			fill="var(--svg-fill)" />
		<path
			d="M9.10199 8.45182C10.6373 8.45182 11.882 6.81029 11.882 4.78536C11.882 2.76043 10.6373 1.1189 9.10199 1.1189C7.56666 1.1189 6.32202 2.76043 6.32202 4.78536C6.32202 6.81029 7.56666 8.45182 9.10199 8.45182Z"
			fill="var(--svg-fill)" />
		<path
			d="M18.1577 7.33292C19.693 7.33292 20.9376 5.69139 20.9376 3.66646C20.9376 1.64153 19.693 0 18.1577 0C16.6223 0 15.3777 1.64153 15.3777 3.66646C15.3777 5.69139 16.6223 7.33292 18.1577 7.33292Z"
			fill="var(--svg-fill)" />
		<path
			d="M25.22 16.3666C26.7554 16.3666 28 14.7251 28 12.7002C28 10.6752 26.7554 9.03371 25.22 9.03371C23.6847 9.03371 22.4401 10.6752 22.4401 12.7002C22.4401 14.7251 23.6847 16.3666 25.22 16.3666Z"
			fill="var(--svg-fill)" />
	</g>
	<defs>
		<clipPath id="clip0_2_616">
			<rect width="28" height="28" fill="white" />
		</clipPath>
	</defs>
</svg>