<svg width="70" height="70" viewBox="0 0 70 70" fill="none" xmlns="http://www.w3.org/2000/svg">
<g clip-path="url(#clip0_12_287)">
<path d="M41.8711 48.0303C42.2787 49.0931 40.9314 48.3056 41.1081 49.1775C36.1942 40.6225 25.1831 40.0972 19.2257 33.1112C27.0463 31.9832 29.5173 22.4077 39.1321 25.9592C44.8752 28.081 44.0467 35.744 42.065 41.4571C41.3338 43.5629 41.261 45.8489 41.8645 47.9981C41.8667 48.0088 41.871 48.021 41.8746 48.0296L41.8711 48.0303Z" fill="#C45F27"/>
<path d="M40.2298 30.2538C39.7269 29.9193 39.1646 29.6601 38.5967 29.4935C38.317 29.4131 38.0883 29.2609 37.906 29.0341C37.5342 28.5726 37.0763 28.1563 36.5734 27.8218C33.1372 25.5363 32.9184 27.7656 30.2101 29.469C27.8083 31.3763 22.9148 32.7562 17.2353 33.5016C13.5951 34.2282 10.7505 35.425 9.78552 37.4001C7.50531 39.9905 12.1628 50.3492 16.7316 50.7401C18.0905 50.9765 19.552 50.8528 21.1936 50.9637C22.6025 51.0595 24.1998 52.1219 24.8328 53.3842C25.5719 54.8568 26.0242 56.2503 26.764 57.4129C28.8871 61.4761 40.2446 61.7662 41.7521 58.6619C43.1984 57.0069 43.2047 53.9223 42.4675 50.2842C40.9579 44.7603 40.3388 39.7137 41.1707 36.7592C41.6925 33.6015 43.6661 32.5393 40.2298 30.2538Z" fill="#C45F27"/>
<path d="M14.7377 28.4379C17.0206 29.9563 20.4946 28.7464 22.4971 25.7356C24.4997 22.7249 24.2725 19.0533 21.9896 17.5349C19.7068 16.0165 16.2328 17.2264 14.2303 20.2372C12.2277 23.248 12.4549 26.9196 14.7377 28.4379Z" fill="#C45F27"/>
<path d="M32.8654 21.5678C35.1483 23.0862 38.6222 21.8763 40.6248 18.8655C42.6273 15.8547 42.4001 12.1831 40.1173 10.6648C37.8345 9.14641 34.3605 10.3563 32.3579 13.367C30.3554 16.3778 30.5826 20.0494 32.8654 21.5678Z" fill="#C45F27"/>
<path d="M47.4365 28.8598C49.7193 30.3782 53.1933 29.1683 55.1958 26.1575C57.1984 23.1467 56.9712 19.4751 54.6884 17.9568C52.4055 16.4384 48.9315 17.6482 46.929 20.659C44.9264 23.6698 45.1537 27.3414 47.4365 28.8598Z" fill="#C45F27"/>
<path d="M49.0034 49.2758C51.2862 50.7942 54.7602 49.5843 56.7627 46.5735C58.7653 43.5627 58.5381 39.8911 56.2552 38.3728C53.9724 36.8544 50.4984 38.0643 48.4959 41.0751C46.4933 44.0858 46.7205 47.7574 49.0034 49.2758Z" fill="#C45F27"/>
</g>
<defs>
<clipPath id="clip0_12_287">
<rect width="50" height="50" fill="white" transform="translate(27.6904) rotate(33.6289)"/>
</clipPath>
</defs>
</svg>
